HIERARCHY
ROOT Hips
{
	OFFSET 0.000000 0.000000 0.000000
	CHANNELS 6 Xposition Yposition Zposition Xrotation Yrotation Zrotation
	JOINT Thigh.L
	{
		OFFSET 0.054031 0.026507 -0.093698
		CHANNELS 3 Xrotation Yrotation Zrotation
		JOINT Shin.L
		{
			OFFSET 0.060521 0.005697 -0.415224
			CHANNELS 3 Xrotation Yrotation Zrotation
			JOINT Foot.L
			{
				OFFSET -0.041254 0.030935 -0.441551
				CHANNELS 3 Xrotation Yrotation Zrotation
				JOINT Toe.L
				{
					OFFSET 0.047832 -0.127115 -0.065095
					CHANNELS 3 Xrotation Yrotation Zrotation
					End Site
					{
						OFFSET 0.000000 0.050000 0.000000
					}
				}
			}
		}
	}
	JOINT Thigh.R
	{
		OFFSET -0.059148 0.020741 -0.106469
		CHANNELS 3 Xrotation Yrotation Zrotation
		JOINT Shin.R
		{
			OFFSET -0.049570 0.013709 -0.396331
			CHANNELS 3 Xrotation Yrotation Zrotation
			JOINT Foot.R
			{
				OFFSET 0.013590 0.019191 -0.450778
				CHANNELS 3 Xrotation Yrotation Zrotation
				JOINT Toe.R
				{
					OFFSET -0.039482 -0.128015 -0.064861
					CHANNELS 3 Xrotation Yrotation Zrotation
					End Site
					{
						OFFSET 0.000000 0.050000 0.000000
					}
				}
			}
		}
	}
	JOINT Spine
	{
		OFFSET -0.002532 0.027765 0.113070
		CHANNELS 3 Xrotation Yrotation Zrotation
		JOINT Spine.2
		{
			OFFSET 0.008770 0.007151 0.139434
			CHANNELS 3 Xrotation Yrotation Zrotation
			JOINT Chest
			{
				OFFSET -0.010693 -0.022263 0.055983
				CHANNELS 3 Xrotation Yrotation Zrotation
				JOINT Neck
				{
					OFFSET -0.012081 0.024920 0.168020
					CHANNELS 3 Xrotation Yrotation Zrotation
					JOINT Head
					{
						OFFSET 0.025419 -0.021013 0.167033
						CHANNELS 3 Xrotation Yrotation Zrotation
						End Site
						{
							OFFSET 0.000000 0.050000 0.000000
						}
					}
				}
				JOINT Clavicle.L
				{
					OFFSET 0.047410 0.004394 0.086558
					CHANNELS 3 Xrotation Yrotation Zrotation
					JOINT UpperArm.L
					{
						OFFSET 0.127428 0.013652 0.057491
						CHANNELS 3 Xrotation Yrotation Zrotation
						JOINT ForeArm.L
						{
							OFFSET 0.271145 0.043010 -0.075354
							CHANNELS 3 Xrotation Yrotation Zrotation
							JOINT Hand.L
							{
								OFFSET 0.276049 0.000601 0.022167
								CHANNELS 3 Xrotation Yrotation Zrotation
								JOINT Thumb1.L
								{
									OFFSET 0.154615 0.000261 0.009605
									CHANNELS 3 Xrotation Yrotation Zrotation
									JOINT Thumb2.L
									{
										OFFSET 0.029904 0.000065 0.002401
										CHANNELS 3 Xrotation Yrotation Zrotation
										End Site
										{
											OFFSET 0.024920 0.000054 0.002001
										}
									}
								}
								JOINT Index1.L
								{
									OFFSET 0.137615 0.000261 0.009605
									CHANNELS 3 Xrotation Yrotation Zrotation
									JOINT Index2.L
									{
										OFFSET 0.029904 0.000065 0.002401
										CHANNELS 3 Xrotation Yrotation Zrotation
										JOINT Index3.L
										{
											OFFSET 0.021929 0.000048 0.001761
											CHANNELS 3 Xrotation Yrotation Zrotation
											End Site
											{
												OFFSET 0.017942 0.000039 0.001441
											}
										}
									}
								}
								JOINT Middle1.L
								{
									OFFSET 0.119615 0.000261 0.009605
									CHANNELS 3 Xrotation Yrotation Zrotation
									JOINT Middle2.L
									{
										OFFSET 0.030900 0.000067 0.002481
										CHANNELS 3 Xrotation Yrotation Zrotation
										JOINT Middle3.L
										{
											OFFSET 0.021929 0.000048 0.001761
											CHANNELS 3 Xrotation Yrotation Zrotation
											End Site
											{
												OFFSET 0.017942 0.000039 0.001441
											}
										}
									}
								}
								JOINT Ring1.L
								{
									OFFSET 0.101615 0.000261 0.009605
									CHANNELS 3 Xrotation Yrotation Zrotation
									JOINT Ring2.L
									{
										OFFSET 0.028907 0.000063 0.002321
										CHANNELS 3 Xrotation Yrotation Zrotation
										JOINT Ring3.L
										{
											OFFSET 0.019936 0.000043 0.001601
											CHANNELS 3 Xrotation Yrotation Zrotation
											End Site
											{
												OFFSET 0.016945 0.000037 0.001361
											}
										}
									}
								}
								JOINT Pinky1.L
								{
									OFFSET 0.085615 0.000261 0.009605
									CHANNELS 3 Xrotation Yrotation Zrotation
									JOINT Pinky2.L
									{
										OFFSET 0.023923 0.000052 0.001921
										CHANNELS 3 Xrotation Yrotation Zrotation
										JOINT Pinky3.L
										{
											OFFSET 0.016945 0.000037 0.001361
											CHANNELS 3 Xrotation Yrotation Zrotation
											End Site
											{
												OFFSET 0.013955 0.000030 0.001121
											}
										}
									}
								}
							}
						}
					}
				}
				JOINT Clavicle.R
				{
					OFFSET -0.048149 0.010550 0.085643
					CHANNELS 3 Xrotation Yrotation Zrotation
					JOINT UpperArm.R
					{
						OFFSET -0.110649 0.009857 0.053782
						CHANNELS 3 Xrotation Yrotation Zrotation
						JOINT ForeArm.R
						{
							OFFSET -0.289551 0.027938 -0.039979
							CHANNELS 3 Xrotation Yrotation Zrotation
							JOINT Hand.R
							{
								OFFSET -0.272229 0.014162 -0.005316
								CHANNELS 3 Xrotation Yrotation Zrotation
								JOINT Thumb1.R
								{
									OFFSET -0.154815 0.006233 -0.002340
									CHANNELS 3 Xrotation Yrotation Zrotation
									JOINT Thumb2.R
									{
										OFFSET -0.029954 0.001558 -0.000585
										CHANNELS 3 Xrotation Yrotation Zrotation
										End Site
										{
											OFFSET -0.024961 0.001299 -0.000487
										}
									}
								}
								JOINT Index1.R
								{
									OFFSET -0.137815 0.006233 -0.002340
									CHANNELS 3 Xrotation Yrotation Zrotation
									JOINT Index2.R
									{
										OFFSET -0.029954 0.001558 -0.000585
										CHANNELS 3 Xrotation Yrotation Zrotation
										JOINT Index3.R
										{
											OFFSET -0.021966 0.001143 -0.000429
											CHANNELS 3 Xrotation Yrotation Zrotation
											End Site
											{
												OFFSET -0.017972 0.000935 -0.000351
											}
										}
									}
								}
								JOINT Middle1.R
								{
									OFFSET -0.119815 0.006233 -0.002340
									CHANNELS 3 Xrotation Yrotation Zrotation
									JOINT Middle2.R
									{
										OFFSET -0.030952 0.001610 -0.000604
										CHANNELS 3 Xrotation Yrotation Zrotation
										JOINT Middle3.R
										{
											OFFSET -0.021966 0.001143 -0.000429
											CHANNELS 3 Xrotation Yrotation Zrotation
											End Site
											{
												OFFSET -0.017972 0.000935 -0.000351
											}
										}
									}
								}
								JOINT Ring1.R
								{
									OFFSET -0.101815 0.006233 -0.002340
									CHANNELS 3 Xrotation Yrotation Zrotation
									JOINT Ring2.R
									{
										OFFSET -0.028955 0.001506 -0.000565
										CHANNELS 3 Xrotation Yrotation Zrotation
										JOINT Ring3.R
										{
											OFFSET -0.019969 0.001039 -0.000390
											CHANNELS 3 Xrotation Yrotation Zrotation
											End Site
											{
												OFFSET -0.016974 0.000883 -0.000331
											}
										}
									}
								}
								JOINT Pinky1.R
								{
									OFFSET -0.085815 0.006233 -0.002340
									CHANNELS 3 Xrotation Yrotation Zrotation
									JOINT Pinky2.R
									{
										OFFSET -0.023963 0.001247 -0.000468
										CHANNELS 3 Xrotation Yrotation Zrotation
										JOINT Pinky3.R
										{
											OFFSET -0.016974 0.000883 -0.000331
											CHANNELS 3 Xrotation Yrotation Zrotation
											End Site
											{
												OFFSET -0.013978 0.000727 -0.000273
											}
										}
									}
								}
							}
						}
					}
				}
			}
		}
	}
}
MOTION
Frames: 4
Frame Time: 0.03333333
0.005044 -0.045718 1.030446 -5.365414 -0.396392 -0.513646 7.313694 -1.747509 3.208495 1.334257 1.561325 -9.077947 -9.266569 -2.917815 10.477719 -0.530181 -1.714861 -1.413230 0.587354 5.262963 -3.755600 11.844221 1.120499 2.854395 -7.792947 -2.406185 -8.509021 -0.327257 -1.654631 0.599107 3.084057 2.316610 2.339171 1.085619 -0.604807 -1.247355 2.266741 0.376981 0.637984 7.000099 1.823761 -0.207305 1.310252 -2.489144 -0.835136 -0.855862 18.543076 -1.543383 28.531465 45.213676 -28.015287 16.044898 1.244728 -24.560889 -2.052087 -4.538953 -11.762023 0.000000 0.000000 0.000000 0.000000 0.000000 0.000000 0.000000 0.000000 0.000000 0.000000 0.000000 0.000000 0.000000 0.000000 0.000000 0.000000 0.000000 0.000000 0.000000 0.000000 0.000000 0.000000 0.000000 0.000000 0.000000 0.000000 0.000000 0.000000 0.000000 0.000000 0.000000 0.000000 0.000000 0.000000 0.000000 0.000000 0.000000 0.000000 0.000000 0.000000 0.000000 0.000000 0.739213 -18.940518 7.544778 28.283566 -46.388589 26.608526 7.759624 -2.794125 26.202717 -5.079851 3.913674 9.560962 0.000000 0.000000 0.000000 0.000000 0.000000 0.000000 0.000000 0.000000 0.000000 0.000000 0.000000 0.000000 0.000000 0.000000 0.000000 0.000000 0.000000 0.000000 0.000000 0.000000 0.000000 0.000000 0.000000 0.000000 0.000000 0.000000 0.000000 0.000000 0.000000 0.000000 0.000000 0.000000 0.000000 0.000000 0.000000 0.000000 0.000000 0.000000 0.000000 0.000000 0.000000 0.000000
0.005776 -0.045892 1.030475 -5.360444 -0.454705 -0.356385 7.370110 -1.707079 3.207118 1.148494 1.523074 -9.097070 -9.194655 -2.842966 10.405152 -0.554684 -1.741914 -1.422317 0.621514 5.258763 -3.763469 11.809813 1.167393 2.902645 -7.812746 -2.368817 -8.629733 -0.317525 -1.662598 0.609768 3.070376 2.319271 2.348165 1.141769 -0.594805 -1.234641 2.234656 0.391478 0.647467 6.955443 1.840316 -0.227138 1.320437 -2.499133 -0.837960 -0.874439 18.530023 -1.567461 28.552978 45.174546 -28.042306 15.982624 1.207931 -24.659657 -2.096223 -4.615246 -11.838630 0.000000 0.000000 0.000000 0.000000 0.000000 0.000000 0.000000 0.000000 0.000000 0.000000 0.000000 0.000000 0.000000 0.000000 0.000000 0.000000 0.000000 0.000000 0.000000 0.000000 0.000000 0.000000 0.000000 0.000000 0.000000 0.000000 0.000000 0.000000 0.000000 0.000000 0.000000 0.000000 0.000000 0.000000 0.000000 0.000000 0.000000 0.000000 0.000000 0.000000 0.000000 0.000000 0.770667 -18.923501 7.587240 28.380079 -46.424776 26.627959 7.785346 -2.722461 26.244143 -4.968493 3.989731 9.612630 0.000000 0.000000 0.000000 0.000000 0.000000 0.000000 0.000000 0.000000 0.000000 0.000000 0.000000 0.000000 0.000000 0.000000 0.000000 0.000000 0.000000 0.000000 0.000000 0.000000 0.000000 0.000000 0.000000 0.000000 0.000000 0.000000 0.000000 0.000000 0.000000 0.000000 0.000000 0.000000 0.000000 0.000000 0.000000 0.000000 0.000000 0.000000 0.000000 0.000000 0.000000 0.000000
0.005953 -0.046361 1.030521 -5.379034 -0.502833 -0.266367 7.408246 -1.643167 3.194251 1.047158 1.498710 -9.123929 -9.155942 -2.819206 10.384335 -0.552837 -1.744337 -1.425944 0.647667 5.285501 -3.745468 11.792450 1.212308 2.952339 -7.790646 -2.354809 -8.706858 -0.320465 -1.663512 0.616182 3.040648 2.329866 2.371982 1.207156 -0.609773 -1.231208 2.182035 0.401036 0.667221 6.976987 1.849583 -0.249743 1.384560 -2.502486 -0.861844 -0.899085 18.537577 -1.591252 28.642280 45.153907 -28.102872 15.958052 1.175771 -24.769553 -2.029391 -4.717293 -11.865446 0.000000 0.000000 0.000000 0.000000 0.000000 0.000000 0.000000 0.000000 0.000000 0.000000 0.000000 0.000000 0.000000 0.000000 0.000000 0.000000 0.000000 0.000000 0.000000 0.000000 0.000000 0.000000 0.000000 0.000000 0.000000 0.000000 0.000000 0.000000 0.000000 0.000000 0.000000 0.000000 0.000000 0.000000 0.000000 0.000000 0.000000 0.000000 0.000000 0.000000 0.000000 0.000000 0.796947 -18.952711 7.618811 28.353459 -46.351629 26.546857 7.730319 -2.781244 26.250783 -4.931417 4.041871 9.663634 0.000000 0.000000 0.000000 0.000000 0.000000 0.000000 0.000000 0.000000 0.000000 0.000000 0.000000 0.000000 0.000000 0.000000 0.000000 0.000000 0.000000 0.000000 0.000000 0.000000 0.000000 0.000000 0.000000 0.000000 0.000000 0.000000 0.000000 0.000000 0.000000 0.000000 0.000000 0.000000 0.000000 0.000000 0.000000 0.000000 0.000000 0.000000 0.000000 0.000000 0.000000 0.000000
0.005928 -0.046770 1.030540 -5.373643 -0.523457 -0.238649 7.386348 -1.606934 3.178139 1.016293 1.487289 -9.134141 -9.128122 -2.826885 10.381829 -0.551616 -1.743160 -1.436792 0.670698 5.308997 -3.740457 11.693455 1.225709 3.024780 -7.743694 -2.371859 -8.757151 -0.323128 -1.664544 0.621162 3.001918 2.354751 2.393940 1.262790 -0.623072 -1.212754 2.129598 0.412823 0.683985 6.979718 1.844980 -0.255500 1.385081 -2.530077 -0.883504 -0.942864 18.547011 -1.567076 28.713603 45.089337 -28.149881 16.023444 1.163430 -24.889869 -1.957321 -4.740247 -11.878513 0.000000 0.000000 0.000000 0.000000 0.000000 0.000000 0.000000 0.000000 0.000000 0.000000 0.000000 0.000000 0.000000 0.000000 0.000000 0.000000 0.000000 0.000000 0.000000 0.000000 0.000000 0.000000 0.000000 0.000000 0.000000 0.000000 0.000000 0.000000 0.000000 0.000000 0.000000 0.000000 0.000000 0.000000 0.000000 0.000000 0.000000 0.000000 0.000000 0.000000 0.000000 0.000000 0.791579 -18.986887 7.614674 28.353257 -46.313813 26.545616 7.664984 -2.799024 26.176361 -4.882339 4.066306 9.650453 0.000000 0.000000 0.000000 0.000000 0.000000 0.000000 0.000000 0.000000 0.000000 0.000000 0.000000 0.000000 0.000000 0.000000 0.000000 0.000000 0.000000 0.000000 0.000000 0.000000 0.000000 0.000000 0.000000 0.000000 0.000000 0.000000 0.000000 0.000000 0.000000 0.000000 0.000000 0.000000 0.000000 0.000000 0.000000 0.000000 0.000000 0.000000 0.000000 0.000000 0.000000 0.000000
